/* XPM */
static char *_c11f8498cab4122a545afc918f30f4fgTo1U0m9f1vV041L[] = {
/* columns rows colors chars-per-pixel */
"32 32 57 1 ",
"  c #070E47",
". c black",
"X c #151206",
"o c #27220A",
"O c #322C0E",
"+ c #3D3411",
"@ c #403711",
"# c #4E4315",
"$ c #8F7A26",
"% c #8F7B26",
"& c #907A26",
"* c #AC922E",
"= c #AC942E",
"- c #BFA333",
"; c #FF9811",
": c #FF9912",
"> c #FF9D15",
", c #FF9E16",
"< c #FF9F16",
"1 c #FFA41A",
"2 c #FFA81E",
"3 c #FFA91E",
"4 c #CFB137",
"5 c #EAAD29",
"6 c #FFAF22",
"7 c #FFB527",
"8 c #FFB729",
"9 c #FFB82A",
"0 c #FFB92B",
"q c #FFBC2D",
"w c #E7C53E",
"e c #EAC83E",
"r c #FFD43F",
"t c #EFCC40",
"y c #FFD540",
"u c #FFDA44",
"i c #FFDD53",
"p c #FFDE5A",
"a c #FFDF5E",
"s c #FFE060",
"d c #FFE373",
"f c #FFE374",
"g c #FFE67F",
"h c #FFE785",
"j c #FFE88B",
"k c #F4E197",
"l c #FFEA93",
"z c #FFEA94",
"x c #FFEA96",
"c c #FFEB9C",
"v c #FFEC9E",
"b c #F8E9AC",
"n c #FFEFAE",
"m c #FFF0B3",
"M c #FFF6D1",
"N c #FFF8DD",
"B c white",
/* pixels */
"          #..........#          ",
"          #..........#          ",
"      +XXX%wwwwwwwwww&XXX+      ",
"      O...%uuuuuuuuuu%...O      ",
"    @o=444kNNNNNNNNNNk444*o@    ",
"    o.-uuunBBBBBBBBBBnuuu-.o    ",
"  +O=-bMMMlddddddddddauuut-*O+  ",
"  X.4uMBBBxuuuuuuuuuuuuuuuu4.X  ",
"  X.4uMBnhsuuuuuuuuu866660u4.X  ",
"  X.4uMBhuuuuuuuuuuu1;;;;2u4.X  ",
"##%%knxxsuuuuuuuuu87<;;;;<75%%##",
"..wuNBduuuuuuuuuuu<;;;;;;;;1uw..",
"..wuNBduuuuuuuuuuu<;;;;;;;;1uw..",
"..wuNBduuuuuuuuuuu<;;;;;;;;1uw..",
"..wuNBduuuuuuuuuuu<;;;;;;;;1uw..",
"..wufgiuuuuuuuuuuu>;;;;;;;;1uw..",
"..wuuuuuuuuuuuuuuuuu1;;;;2uuuw..",
"..wuvmsuuuuuuuuuuuuu1;;;;2uuuw..",
"..wuNBfuuuuuuuuuuuuuyryyryuuuw..",
"..wujcpuuuuuuuuuuuuuuuuuuuuuuw..",
"..wuuuuuuuuuuuuuuu211quuuuuuuw..",
"##&%euuuuuuuuuuuuu<;;7uuuuue%&##",
"  X.4uuuuuuuuuuu22;;;<20uuu4.X  ",
"  X.4uuuuuuuuuuu;;;;;;;6uuu4.X  ",
"  X.4uuuuuuuuuuu;;;;;;;6uuu4.X  ",
"  +O=-tuuuuuuuuu22;;;<20ut-*O+  ",
"    o.-uuuuuuuuuuu<;;7uuu-.o    ",
"    @o=444euuuuuuu2115444*o@    ",
"      O...%uuuuuuuuuu%...O      ",
"      +XXX&wwwwwwwwww&XXX+      ",
"          #..........#          ",
"          #..........#          "
};
