/* XPM */
static char *thenry64[] = {
/* columns rows colors chars-per-pixel */
"64 64 240 2 ",
"   c #140E05",
".  c #1C1505",
"X  c #1A1509",
"o  c #1A1407",
"O  c #221906",
"+  c #241C0B",
"@  c #2A1D0B",
"#  c #301E0C",
"$  c #271F10",
"%  c #2B220D",
"&  c #31220E",
"*  c #2E2511",
"=  c #272011",
"-  c #312713",
";  c #342A15",
":  c #392E16",
">  c #362C18",
",  c #392E18",
"<  c #3B2512",
"1  c #3B3117",
"2  c #3D331A",
"3  c #3B3418",
"4  c #442E16",
"5  c #42361C",
"6  c #44391D",
"7  c #493C1E",
"8  c #4C321C",
"9  c #533B1B",
"0  c #453B21",
"q  c #493D22",
"w  c #573C23",
"e  c #623F27",
"r  c #56411F",
"t  c #4C4223",
"y  c #4C4328",
"u  c #524524",
"i  c #554925",
"p  c #514629",
"a  c #544B2A",
"s  c #5A4E2A",
"d  c #5A4A24",
"f  c #5C512C",
"g  c #5F5126",
"h  c #594E31",
"j  c #5D5432",
"k  c #66492A",
"l  c #71472C",
"z  c #62552C",
"x  c #67572D",
"c  c #774E32",
"v  c #625632",
"b  c #655B33",
"n  c #6A5C33",
"m  c #685938",
"M  c #765736",
"N  c #6F522F",
"B  c #6C6036",
"V  c #6D643B",
"C  c #716336",
"Z  c #72663B",
"A  c #756A3E",
"S  c #7B6C3D",
"D  c #7B653A",
"F  c #7F703E",
"G  c #6D6440",
"H  c #746B42",
"J  c #796D42",
"K  c #766D48",
"L  c #7C7245",
"P  c #7D744A",
"I  c #7D754A",
"U  c #785E40",
"Y  c #85583B",
"T  c #915C3F",
"R  c #89673C",
"E  c #966B3B",
"W  c #9B703F",
"Q  c #A3733C",
"!  c #895D41",
"~  c #935F45",
"^  c #876744",
"/  c #936244",
"(  c #9B6A4B",
")  c #827445",
"_  c #897B47",
"`  c #817649",
"'  c #847A4B",
"]  c #8A7D4B",
"[  c #887747",
"{  c #957A49",
"}  c #887E51",
"|  c #867C54",
" . c #977856",
".. c #A36B4D",
"X. c #A77A46",
"o. c #A87854",
"O. c #B47C5B",
"+. c #B17955",
"@. c #A86A51",
"#. c #B87E61",
"$. c #8C814D",
"%. c #92844D",
"&. c #98854E",
"*. c #8C8253",
"=. c #8D845A",
"-. c #928553",
";. c #958954",
":. c #9A8C54",
">. c #92855A",
",. c #958A5B",
"<. c #9A8D5C",
"1. c #9B855A",
"2. c #9D915D",
"3. c #9D9056",
"4. c #A78856",
"5. c #A1935D",
"6. c #AB985E",
"7. c #A8965B",
"8. c #B79258",
"9. c #B58657",
"0. c #9C8B62",
"q. c #968862",
"w. c #9D9262",
"e. c #9E936A",
"r. c #A28C65",
"t. c #BE8465",
"y. c #BA8A65",
"u. c #A29563",
"i. c #A59A65",
"p. c #AB9C64",
"a. c #A2966B",
"s. c #A59B69",
"d. c #AB9E6A",
"f. c #AC9666",
"g. c #B29D64",
"h. c #B7986A",
"j. c #AA9F75",
"k. c #ADA26C",
"l. c #ADA067",
"z. c #B4A26B",
"x. c #B9A66D",
"c. c #BAA86F",
"v. c #B0A869",
"b. c #AEA471",
"n. c #ABA17F",
"m. c #B2A672",
"M. c #B4AA75",
"N. c #BCAA72",
"B. c #B6AC7B",
"V. c #B9AD7A",
"C. c #BAA672",
"Z. c #BBB17D",
"A. c #BDBE60",
"S. c #C3945E",
"D. c #C0895E",
"F. c #C38B69",
"G. c #CB8E6D",
"H. c #C18865",
"J. c #C9956A",
"K. c #CD9472",
"L. c #C79C72",
"P. c #D39574",
"I. c #D59A75",
"U. c #D69B79",
"Y. c #DB9B7B",
"T. c #DA977A",
"R. c #D09071",
"E. c #C4A269",
"W. c #C1AD75",
"Q. c #C7AA79",
"!. c #DBA37C",
"~. c #D6A47A",
"^. c #C4B27A",
"/. c #C7B27B",
"(. c #E2A87D",
"). c #E09B7D",
"_. c #B7AD85",
"`. c #BCB382",
"'. c #BAB18C",
"]. c #ABA38A",
"[. c #B9B8AE",
"{. c #E29D82",
"}. c #D7A781",
"|. c #C2B582",
" X c #C4BB8B",
".X c #C9BA88",
"XX c #D5B987",
"oX c #C5BD94",
"OX c #CFAC85",
"+X c #E5A485",
"@X c #E5AC83",
"#X c #EAAB8B",
"$X c #E7A788",
"%X c #E9B287",
"&X c #EEAE91",
"*X c #EBB793",
"=X c #F2B395",
"-X c #F5B699",
";X c #F5BB9A",
":X c #F3BC96",
">X c #C4BCA2",
",X c #F6BAA0",
"<X c #CBC08F",
"1X c #D5C18E",
"2X c #CDC293",
"3X c #CCC49A",
"4X c #D3C592",
"5X c #D6C996",
"6X c #D4CA9B",
"7X c #DBCD9C",
"8X c #D7C796",
"9X c #F4C29B",
"0X c #EEC29B",
"qX c #CCC4A5",
"wX c #D3CBA3",
"eX c #D6CDA7",
"rX c #DDD2A3",
"tX c #DBD4AD",
"yX c #DAD3B3",
"uX c #DCD5B9",
"iX c #D1CBB5",
"pX c #E3D8AB",
"aX c #E3DBB3",
"sX c #E3DDBC",
"dX c #E8DDB6",
"fX c #E9E1BC",
"gX c #DCD7C5",
"hX c #D1CFC2",
"jX c #E2DDC7",
"kX c #EBE5C4",
"lX c #E9E5CB",
"zX c #ECE8D6",
"xX c #F1EEDA",
"cX c #F2F0DB",
"vX c #F1EEE5",
"bX c #F4F2E8",
"nX c #F7F6F3",
"mX c #F9F9FB",
"MX c #F8F7F6",
"NX c #EFECE3",
/* pixels */
"F [ _ &.%.%.%.$.$.$.$.$.$._ _ _ [ _ $.%.:.:.&.;.] ] %.-.5.p.z.h.z.z.z.h.s.1.1.,.<.u.5Xk.l.k.k.v.k.k.k.i.w.w.k.l.w.w.w.i.l.l.,.I ",
"%.) :.%.%.%.$.$.$.%.%.%.$.$.%.%.%.$.$.$._ $.%.] d.<.%.5.u.d.z.d.s.u.u.r.u.r.1.>.2.i.6Xm.k.l.l.k.k.k.k.d.l.w.w.w.2.,._ S B f f j ",
"_ L :.&.%.&.;.&.%.&.3.3.3.%._ _ ' _ ] $.%.-.-.-.-.s.d.-.>.1.<.r.r.r.r.r.0.0.u.0.,.u.5Xm.l.l.i.l.k.v.k.k.3.$.S B f i u i g s f s ",
"$.3.3.3.:.;.3.3.3.%.%._ _ _ _ _ ] ] -.>.:.,.;.-.*.' _ i.-.| 1.q.r.r.r.0.0.<.w.s.i.2.6XM.k.k.l.w.;.L B f u u i i i i i a f f a f ",
"l.2.l.7.3.;.%.] ' ' $.' $.$.$.$.} ] } ] } >.:.:.] ) n x i.i.,.>. .q.q.q.,.0.w.w.i.l.6Xk.$.C f u 6 7 t t r i d a s s f f f f f z ",
"7.;.] _ ] _ ] $.$.$.$.$.$.F I A L I ' *.*.-.;.n # & # @ + : A -.>.| | -.<.,.;.$.A b  XA 3 6 6 3 6 6 t t t i a f f z v f b z j b ",
"I L ) _ ] ' ' ' I I I A H A A L L ' *.>.-.n 6 O & & & - @ O @ 1 J -.$.S f u 2 6 0 2 `.I t 6 t 6 7 t t t i a g z z b b B B b B B ",
"$.$.$.' L A Z V V V H H H H H L I ' *.,._ r < % % @ @ @ @ @ @ < , s D n : : 3 3 3 t _.*.t 6 3 t t t t t u a f j b B V V A A A A ",
"$.' I L L L H H A A H A H H I I I *.,.&.x 4 < 4 , # # < # @ + # @ < 8 n r : 3 3 3 3 _.<.t t t t i p p a a f j b B A J J ` ] } -.",
"I ' I L I I I I L H H H I I L I I $.%.C r 4 # & # < < < 8 e c ! c 8 # 4 r : 3 3 2 t b.w.a f a a a a s f j B V Z A ' -.a.'.qXjXvX",
"I L L L I I I ' ' } I I I I I A x g M r 8 4 8 l e l Y ! #.R.T.T.P.H.Y # 7 3 3 3 3 6 e.j.a a h f j B b V L ,.n.>XgXzXMXmXmXvXjXqX",
"I L L L L I $.' ' ' L B g t 6 3 : r C k r c +.I.R.T.T.{.{.{.{.$X(.).G.e & r 3 3 3 0 e.B.j B V ' e.'.iXlXnXmXmXnXzXuXqX_.k.<.,.<.",
"$.' I $.*.I V j t t 3 3 3 3 6 t 3 t D x k I.%X=X-X-X-X-X=X&X#X$X+X).I...8 g 6 t a j e.yX>XgXvXmXmXmXbXlXeX'.M.l.i.k.M.2.2.m.M.^.",
";.' B i 3 3 3 3 3 3 3 3 3 6 6 t 5 t R z R *X;X;X-X,X-X-X-X-X=X&X$X$XU.F.w ) q.n.qXgXzXMXnXzXuX3X_.2.3.3.w.3.k.k.l.V.|.4X8X7X7X7X",
"3 3 3 3 3 3 3 3 3 t 3 t t t t t t t D M  .:X;X;X9X,X-X-X-X-X&X{.G.t.P.U.M ].mXmXvXlXyXwX*.$.$.$.%.3.b.Z.<XrXpXpXpXrX5X|.V.k.u.w.",
"t 6 3 3 3 3 t 3 t t t a i a a f t u x [ X.:X9X;X;X&X&X&X&X$Xt.l 8 e c OXo.d.u.] L L w.eXi.b.Z.5XrXpXfXtXrX4X.Xk.;.$.;.w.i.k.b.k.",
"i t t t t t t t t y y a j b j b j f f %.&.9X%X9.M l ! #.{.T.~ c c ~ ( OXf.4.3.d.Z. X6XkXaXpXrX2XZ.m.l.;.,.;.;.u.l.k.k.k.b.b.M.M.",
"f f g g i f f j b b V A A V V V V b B $.3.9X8.Y Y l l ~ #X+XO.Y 8 m ! ~.h.C.aXfXfXrXrXaXl.3.,.;.;.3.;.<.2.i.k.M.b.M.M.b.k.i.k.k.",
"B B B V b V H H L I ' ' ' $.I I I L L ' { 9XJ./ l w Y +.-X$XR.O...#.H.~.h. .C.i.,.%.v.tX;.;.3.i.k.b.v.b.k.l.i.i.i.l.k.k.b.M.b.M.",
"' ' L L I I ' ' $.*.;.;.$.;.;.$.;.;.3.w.&.Q.!.O.F.#.R.#X,X$XT.{.+X$X#X+XQ.G.t.i.i.v.`.yXv.7.d.p.l.i.i.l.k.M.B.M.b.w.=.$.I V B b ",
"I I ' ' $.$.*.*.,.,.w.s.,.w.v.k.i.M.6X<X4.h.:X*X&X&X-X-X,X$XT.{.&X&X#X$X0XU.P.u.2.5.V.aXp.d.p.i.w.v.d.2.:.] R B n A G H I I I I ",
";.w.w.e.v.s.n.A. X<XeXtX2X<XM.Z.k.v..XL.P.U.9X:X;X-X=X&X&X$XR.{.$X&X+X}.*XR.L.e.3.2.k.fX5.:.-.) B B x n n n n n Z A V V B B b V ",
"Z. XoXwXtXgXlXxXcXzXkXyX2XZ.M.M.V.m.d.h.#X@X9X;X;X-X{.T.~ @.~ R.{.#X+XP.*XU. .g g C -.kX:.<.:.-.$.I B x n n x z x n v f j j V V ",
"zXbXnXmXMXnX3XB.l.w.s.B.B.k.M.B.b.l.,.u.{.@X9X*X=X$X{.{.@.~ ~ t.R.Y.}.I.%XY.[ n n Z ' kX3.5.6.5.,.;.$.L Z z z z g u t f n Z A H ",
"MXMXmXmXMXvX3X3X3X6XoX X|.k.2.s.2.,.,.2.f.&X#X(.(.I.I.D.~ ~ e l R O.~.U.Q.h.b.s.i.u.<.kXp.C ) -.,.<.1.-.' J n u 6 1 6 j B j G I ",
"zXlXsXtXwX3X<X<XZ.Z.B.b.b.b.i.i.k.`. X,.-.!.U.@X!.y.Y T ~ ..@.@./ ..U.}.Q.|.|.V.z.d.d.kXp.z n x S *.w.5.w.-.' V f a a G j j j j ",
" X X`.`.M.B.B.Z.oXwXtXuXdXkXkXlXfXxXkX<Xx.g.z.%X(.J.+.Y.).R.F.F.K.P.!.@Xh.oXXXV.>.0.C.kXC.x ] n z v S -.2.w.,.} ' V a j t y y y ",
" X X3XwXrXaXsXfXkXlXxXcXbXnXmXmXmXnXzX/.x.6.6.XX(.I.@X(...e e ( P.U.@X}.4.I y +   + H sX|.n f.V.5._ _ _ -.,.;.,.,.' I G y 6 0 t ",
"3XwXuXlXcXbXnXMXmXMXbXxXjXjXtXrX5X<XW.x.6.6.6.E.(.(.(.(.K.Y Y t.t.9.!.I.M X X .   . & oX4Xn z D u.yXnXsXoXN.2.} *.*.*.I I I j 3 ",
"mXnXbXzXjXyXqXoXB.k.d.d.i.C.W.W.E.x.z.6.6.%.C n J.!.H.J.^ / ^ / M R y.I.! + + .   o % q.5X-.-.%.&.p.eXNXmXbXuXm.=.*.*.*.*.,.s.*.",
"b.k.w.w.0.,.,.*.*.$.*.7.g.g.g.g.6.6.7.x < % O % h.J.R M k 9 4 4 , c P.!.( % % + O o ; V 6X_ D C C S [ 5.|.jXbXmXNXB.' <.w.w.w.w.",
"*.*.' I I ' I =.' ;.7.p.g.g.g.7.7.:.6 % O O . O  .(.D.N & O % & m K.Y.}.y.% . O + % , q a.J z z z D [ :.5.s.k.b.qXe.V k.s.w.0.-.",
",.>.*.*.*.*.3./.x.x.z.g.g.g.6.6.7.d % O O . % % ^ %X(.(.+.l Y o.K.T.Y.}.P., O + % - 3 1 V B x x z C L [ $.-.L H J J H $.*.' $.' ",
"d.s.s.u.2.7.x.8XW.W.W.c.N.x.x.z.6.5 % % O : 6 4 D %X%X%XJ...o.t.K.P.U.U.P.M + @ * % - - p B x n g C L ) $.w.;.$.$.;.,.;.*.,.w.l.",
"2X.X|.|.Z.z.W.7X/./.^.W.W.c.c.x.v.r & . - 6 6 5 M %X%X(.I.9.+.G.K.U.U.U.P.o.# - % % * * 1 Z Z C C S ) [ $.w.l.k.w.`.<XZ.Z.`.<X`.",
"fXaXrXrX1Xc.W.rX/./.^.^.W.W.N.c.c.x 6 & : 3 5 5 q !.(.(.Y.S.H.K.K.P.P.P.G.M * @ % * * % % t ' L ) L [ ' *.<.w.,.,.k.B.i.<.w.s.k.",
"fXdXpXpX/.z.c.rX/.^.W.W.W.N.N.N.c._ 3 6 : ; 4 5 , ( I.!.!.R.P.P.G.K.K.F.o.> @ * % = % = $ - p h n ' ,.| *.} =.*.=.=.a.=.K G I K ",
"8XdX7XXXE.8.z.7X/.W.c.c.W.N.N.W.c.F 3 ; 3 3 : 3 2 8 +.I.G.O.O.O.y.G.H. ., @ % % + = X % - ; ; > ; , , h =.iXjXlX_.G G y t 0 y y ",
"/.XXXXQ.8.7.z.7X^.W.c.c.C.N.N.N.v.z : - & & ; : 2 1 q y.F.o.o.+.y.L. .: % % + = = > ; , , , , 2 2 2 , , 1 j gXmXuX].| h a a h j ",
"1X/.XXE.8.6.6.5X^.N.N.c.x.x.5.J g t ; % + % % % - ; , u h.Q.Q.^.C.J t - % - 3 > > > > 5 5 5 0 2 5 5 2 , , 3 I qXuXjXqX=.=.=.=.=.",
"1X/.7XE.S.7.6.5X^.N.c.x.) s 5 2 t r 6 1 6 1 - % O + 3 : - s 0.W.v + @ * 5 2 2 2 > > 1 2 2 0 2 5 5 5 0 2 > 0 y e.s.e.b.yXgXlXzXvX",
"1XXXpXS.8.4.6.5XW.N.z.x 2 5 0 4 7 t 5 6 7 6 t 6 5 6 5 : + + % - + + * 5 2 0 0 0 0 ; 2 0 5 0 0 5 0 5 5 5 > 5 y h =.,.s.iXjXjXyXwX",
"9.9.E.E.8.4.g.5XW.c.D 6 5 5 q 5 5 6 5 7 6 5 6 7 q t q 6 3 * - - * % 0 0 0 0 6 6 2 * 0 0 0 2 0 , 5 0 5 5 * 5 0 0 I i.w.w. X3X XoX",
"g.h.aXQ.8.3.6.5XN.5.q q 5 6 q 6 6 5 6 7 5 5 6 6 q t 7 3 3 % - 3 1 % > 6 0 6 6 0 > ; 0 0 0 4 0 0 5 2 5 5 * 2 > 2 b w.2.,.Z.3XoXMX",
"rXh.8XE.{ ] 7.1Xx.n u q 6 6 6 7 7 5 5 6 5 5 5 6 6 t t ; * , 5 b 2 2 1 - 2 t 7 0 * > 0 2 0 2 0 5 5 0 2 2 = ; > 2 t *.2.7.M.2X2XcX",
"/.{ 9.6.D D 4.4X:.s q 6 0 6 5 7 5 5 5 5 5 5 : 6 6 6 ; * * 2 5 3 0 0 2 - + + > : * > 0 5 5 0 , 0 2 0 0 > = * > 0 t V 2.A.v.3X6XxX",
"9.Q X.n n n $.<Xb 7 5 5 6 5 5 7 5 5 5 5 5 5 : 1 : % + ; : : 5 5 2 2 0 ; > ; - % * > 2 6 2 0 , 5 2 2 2 * X 3 3 0 t 0 j $.,.2XwXcX",
"8X/.1Xo.9.M D M.3 < 5 5 7 5 6 6 5 4 5 5 1 1 : : - * % 3 > : 6 5 2 2 5 , 3 2 3 5 > , 6 2 2 5 , 5 2 , 0 = = 5 3 0 0 3 ` $.,.3X2XfX",
"h.9.E.(.(.X.^ 5.5 > 1 1 7 5 5 5 2 2 5 1 2 1 : 5 4 ; : : ; : 5 5 : 5 , 5 5 2 , 5 2 5 5 2 2 5 , , 2 2 2 = * 5 5 5 0 , h p e.oX`.aX",
"9.1XE.S.S.%XL.J 6 ; % 1 7 5 5 5 4 5 5 1 2 1 5 5 3 : 3 : : ; 5 3 2 5 > 2 5 2 1 5 2 2 2 2 5 4 , , , 2 > X > 5 2 5 0 , 0 > | oXB.eX",
"W.J.X.E E G.| z 7 ; - > 7 4 5 5 5 : 5 : 1 1 5 2 3 : : ; 2 - 2 : 2 2 , 2 , 2 , 5 2 5 5 y h h p , , , > X , 5 , 5 0 , > > G |.d.eX",
"W Q Q Q R ` G s : ; - - 7 5 4 5 5 : 5 2 : : 2 2 3 3 : < : - ; 2 2 , 2 , : , , , 2 y y y p m h 2 , , > = 5 , 5 5 0 > > 0 G |.d. X",
"Q Q X.Q z a f i 3 - - - 6 5 4 6 2 2 2 , , : , , : : ; : ; - : 2 3 , , , , > , , , , 0 p q h h 0 > , - = 0 , , , 0 > > 0 a | P a.",
"E E E E s j u u 6 % - % 5 3 3 3 2 2 : , , : , , : 1 - ; - : 1 2 2 : > 1 , ; , , , , , > - ; > > > , = > , > > , 0 > > 2 [.].qXlX",
"B x b z m m 6 7 5 % * * 5 5 5 4 4 2 , : : : : : : 1 ; ; : - 1 1 > , > , , - ; , , , , ; ; > > > > > $ - > - , , 2 > > > hXgXiXiX",
"Z Z Z B G m 6 6 5 ; % & 5 3 3 3 : , , , : ; : : : : ; & - : 1 1 1 , ; ; > - , , , , , ; ; > , > > > + - - - , , 0 > ; ; | ; X X ",
"s V C z f C 6 5 5 1 % % 3 1 3 3 3 : : ; > ; : : : : > * - ; u s > ; > ; ; - > , > , , ; ; > > > ; > + ; ; ; > , 2 > > > 2 > > - ",
"q n n f B x 6 1 5 ; % % 3 1 1 1 : 1 : ; ; ; ; : ; : : ; - - ; : > > > ; - ; > , ; , , - > > > > ; > $ ; * ; > > > 2 - > , X X X ",
"0 v n i B s t : 5 ; & % 3 1 1 1 > > > ; ; - : : ; : < - % ; , , > > ; > * ; - > > , > - > > ; ; ; ; $ - * > ; > > 2 > * 2 = X X ",
"q v v i z a u 1 5 ; & % 1 1 : < : 1 > ; - - ; ; ; - ; - @ ; , ; ; ; > ; * > ; > ; > ; * ; > ; ; ; ; $ * - ; ; > > > = > 2 >     ",
"k x s s d i u 5 6 - % % 3 : ; ; ; : ; - - - - ; ; ; - - @ - ; ; ; ; ; ; = ; ; ; ; > - - > ; > - - ; $ * ; ; ; > > > = - > 0     ",
"s z u a r t t - ; * % % 4 : < ; : - - - - - & ; ; - - - @ - ; > * - ; ; * ; ; ; - > * - - > - > - ; + * ; ; = = - > - > > 0     ",
"s d 0 : 5 r 6 : % * % . 1 ; ; ; : - - - - - - ; ; ; - - $ - ; * - ; - - $ ; ; ; - > * - - > - - - - + - ; = = = - * > = > 2 =   ",
"s w 0 & 1 t 4 - - * % . 1 ; ; ; - - - - - % & - - ; & & $ * - * - ; - - $ ; - - - > = - - - - - - - X * = X = ; * = - = > > =   "
};
