/* XPM */
static char * wall_xpm[] = {
"32 32 278 2",
"  	c #045248",
". 	c #045044",
"+ 	c #045144",
"@ 	c #044F43",
"# 	c #056D5C",
"$ 	c #045447",
"% 	c #04594B",
"& 	c #045348",
"* 	c #045045",
"= 	c #044F42",
"- 	c #045D53",
"; 	c #045347",
"> 	c #055B4E",
", 	c #055E4F",
"' 	c #04584A",
") 	c #045E4E",
"! 	c #045A4D",
"~ 	c #04594C",
"{ 	c #054F43",
"] 	c #04584C",
"^ 	c #056155",
"/ 	c #045D4F",
"( 	c #045247",
"_ 	c #045648",
": 	c #044E42",
"< 	c #046453",
"[ 	c #055045",
"} 	c #044D42",
"| 	c #044E43",
"1 	c #045448",
"2 	c #044F44",
"3 	c #045A4F",
"4 	c #055145",
"5 	c #04554D",
"6 	c #044B40",
"7 	c #044C42",
"8 	c #055044",
"9 	c #054B40",
"0 	c #046150",
"a 	c #04574B",
"b 	c #044B41",
"c 	c #045F53",
"d 	c #045449",
"e 	c #045245",
"f 	c #045343",
"g 	c #045146",
"h 	c #046E64",
"i 	c #045C51",
"j 	c #044C41",
"k 	c #044B42",
"l 	c #045A50",
"m 	c #044E44",
"n 	c #054E43",
"o 	c #044F46",
"p 	c #045346",
"q 	c #044940",
"r 	c #046554",
"s 	c #045649",
"t 	c #055547",
"u 	c #045246",
"v 	c #045046",
"w 	c #055444",
"x 	c #054E44",
"y 	c #046960",
"z 	c #045C4F",
"A 	c #04574C",
"B 	c #045145",
"C 	c #045B50",
"D 	c #044F45",
"E 	c #044C40",
"F 	c #054C42",
"G 	c #04554C",
"H 	c #055247",
"I 	c #045D50",
"J 	c #04564C",
"K 	c #044D43",
"L 	c #046054",
"M 	c #045C4B",
"N 	c #046C5B",
"O 	c #056555",
"P 	c #045E51",
"Q 	c #045E54",
"R 	c #04594E",
"S 	c #04544B",
"T 	c #04554A",
"U 	c #045042",
"V 	c #0A7A71",
"W 	c #046D5A",
"X 	c #045F50",
"Y 	c #055C4B",
"Z 	c #055546",
"` 	c #046556",
" .	c #045C4D",
"..	c #045848",
"+.	c #05594A",
"@.	c #07604C",
"#.	c #046051",
"$.	c #04594A",
"%.	c #045C4C",
"&.	c #045A4C",
"*.	c #04594D",
"=.	c #055849",
"-.	c #045F4C",
";.	c #054C41",
">.	c #055347",
",.	c #045B4E",
"'.	c #055548",
").	c #055246",
"!.	c #055144",
"~.	c #044A3F",
"{.	c #04634F",
"].	c #04584B",
"^.	c #045548",
"/.	c #055749",
"(.	c #045749",
"_.	c #046050",
":.	c #06584A",
"<.	c #065649",
"[.	c #055043",
"}.	c #045043",
"|.	c #045047",
"1.	c #046852",
"2.	c #045B4C",
"3.	c #045E4C",
"4.	c #055245",
"5.	c #05493F",
"6.	c #054F44",
"7.	c #045D4B",
"8.	c #045849",
"9.	c #045E4D",
"0.	c #045547",
"a.	c #045A4E",
"b.	c #046C5C",
"c.	c #045949",
"d.	c #045D4C",
"e.	c #046055",
"f.	c #055B50",
"g.	c #045446",
"h.	c #056352",
"i.	c #046959",
"j.	c #04645A",
"k.	c #046451",
"l.	c #046552",
"m.	c #044D44",
"n.	c #05554B",
"o.	c #046352",
"p.	c #04584D",
"q.	c #04584E",
"r.	c #046C5D",
"s.	c #046859",
"t.	c #045646",
"u.	c #04564A",
"v.	c #09756B",
"w.	c #045546",
"x.	c #046759",
"y.	c #045B51",
"z.	c #055449",
"A.	c #045F54",
"B.	c #046555",
"C.	c #045445",
"D.	c #045147",
"E.	c #045E4F",
"F.	c #045C4E",
"G.	c #065F52",
"H.	c #045A4B",
"I.	c #04574D",
"J.	c #045C50",
"K.	c #046A59",
"L.	c #045349",
"M.	c #055649",
"N.	c #066D60",
"O.	c #046551",
"P.	c #046255",
"Q.	c #054E42",
"R.	c #045D49",
"S.	c #076D5F",
"T.	c #045A4A",
"U.	c #054B41",
"V.	c #045F4E",
"W.	c #045345",
"X.	c #045B4A",
"Y.	c #055C51",
"Z.	c #047162",
"`.	c #05594F",
" +	c #055146",
".+	c #044E48",
"++	c #0A5F52",
"@+	c #076A59",
"#+	c #066353",
"$+	c #0A6557",
"%+	c #04564B",
"&+	c #045747",
"*+	c #055B4B",
"=+	c #045751",
"-+	c #04544E",
";+	c #045E53",
">+	c #046D5B",
",+	c #086C5D",
"'+	c #086554",
")+	c #076A5C",
"!+	c #04655A",
"~+	c #046756",
"{+	c #04604F",
"]+	c #046653",
"^+	c #057068",
"/+	c #04584F",
"(+	c #045748",
"_+	c #055446",
":+	c #055747",
"<+	c #055A4D",
"[+	c #055549",
"}+	c #046658",
"|+	c #066053",
"1+	c #05584A",
"2+	c #046152",
"3+	c #055348",
"4+	c #055346",
"5+	c #096251",
"6+	c #055647",
"7+	c #045647",
"8+	c #04483F",
"9+	c #046656",
"0+	c #044A41",
"a+	c #046350",
"b+	c #045B4B",
"c+	c #054A41",
"d+	c #044D41",
"e+	c #046156",
"f+	c #096A5E",
"g+	c #046256",
"h+	c #045344",
"i+	c #045549",
"j+	c #04675B",
"k+	c #045244",
"l+	c #055D4D",
"m+	c #046359",
"n+	c #046153",
"o+	c #046754",
"p+	c #045B48",
"q+	c #046151",
"r+	c #086E5C",
"s+	c #096E57",
"t+	c #076353",
"u+	c #046253",
"v+	c #046258",
"w+	c #044E46",
"x+	c #045A51",
"y+	c #044A40",
"z+	c #047266",
"A+	c #065449",
"B+	c #065F54",
"C+	c #055445",
"D+	c #046F64",
"E+	c #045B4F",
"F+	c #046052",
"G+	c #065447",
"H+	c #06574A",
"I+	c #075649",
"J+	c #076A5A",
"K+	c #04493F",
"L+	c #046354",
"M+	c #046157",
"N+	c #046854",
"O+	c #056254",
"P+	c #085A4E",
"Q+	c #05564A",
"R+	c #065749",
"S+	c #055448",
"T+	c #044C45",
"U+	c #056D5F",
"V+	c #044F41",
"W+	c #04705E",
"X+	c #046A5D",
"Y+	c #047565",
"Z+	c #05675B",
"`+	c #044F48",
" @	c #095A4D",
".@	c #055C4C",
"  . + @ . # $ % & * = - ; & & > , ' ) ! ~ { ] ^ / ( _ ] ~ * : < ",
"[ } . } | 1 .   2 2 @ 3 4 $ } : | 2 5 6 7 } 8 9 0 . a 6 b | b c ",
"d 6 . e * f } ; } g * h * i j } } k l b m } ( n o j p j | | q r ",
"s ; t u v w . 1 { ( x y e z } | 2 g A } : } B . C j D E } @ F G ",
"H 4 $ + | e 2 B j j b I D J @ | K 2 ( | : 6 2 @ L j 2 6 } @ } a ",
"M N O P Q R S T U * V W X ' Y Z * A `  ...A +.@.#.$.%.&.*.( =.-.",
"B | ;.@ | t @ 1 j } >.,.} '.).!.j j m j e j ~.b p 2 * + . 2 m {.",
"].s ^.$ 1 /._ ].).g ~ ' (._.:.<.t [.}.. : k |.( &._ & ; B 2 H 1.",
"s 4 K . @ 2.j B | } } 3.4.=.n + e { =.5.6 j 6.@ : : g v 6.} b 7.",
"8.@ j + @ 9.b g | 2 2 s 4 0.+ . . 6.a.~.* | | } ( @ p v @ : 6 b.",
"u 2 B 2 e c.* | } 6.0.d.8 t 8 2 * | e.* p } @ 8 f.u L | } g.j h.",
"i.j.g 2.k.l.+ p m.n.o.p.q.r.s.t.^.u. .) v.w.a.x.T [ * y.l z.T A.",
"t @ j K 7 B.| B } . 4.$ : '.4 [ * n C.6.( } 2 @ v } | | | 2 n D.",
"E.B g m g F.. &   u ; B.b G.t '.>.2 #.H.(.I.p.1 H.B *.&.^.e p.J.",
"s n | } } K.j L.u p B S b M.8 b 6 b N.D u j m n O.b ^.| n : ~.P.",
"  Q.j } 7 R.{ $ * 4.* D.2 ).. } F j S.. g.} . n T.j (.| 7 } U.V.",
"I.. . @ 2 _ . 0.| 2 . 8.e Z . B . | ` } e 2 B . W.. _ 2 } } m X.",
"+ | 2 | j g } e 2 . | Y.| W.. 2 @ 7 Z.+ `.j u + * |  +j 7 2 j 9.",
".+z.++@+#+$+2 %+&+*+=+$.-+;+s ; | T >+,+f.u.t.W.'+)+!+` ~+M {+]+",
"}.. + u ~.^+} : } 2 @ /+@ u.2 B @ } (+} T _+& Q.:+j v Q.B e B r.",
"<+[+z.a A }+^.u.m ^.K a g p.$ % u.* . '.%+|+%+B @ | ( + c.].1+2+",
"3+D 6 ^.4+5+8 6+n @ | u.j b 5.6 | v 7+B % 8+).B 9+b e 7 6 0+j g ",
"0.B k n 6.a+B 1 $ ).u b+Q.] c+} p W.8.2 . d+u e e+| _ @ n n B f+",
"; 8 : @ 7 g+. h+| n 1 {+n ~ 9 U.p }.i+b d+j e + T : u | : @ 7 j+",
"  H.s %.s Z.*.~ k+l+m+n+..o+p+0.].g.q+r+s+T.t+u+v+T ( @ v w+x+I ",
"s } | | y+z+g W.| j 2 {+| ].} m * | $.4+A+@ n | % : 2 d+y+*  +B+",
"C+= 2 K | D+I.8.B % (.% u z ^.g.s E+F+G+H+2 ^.u V.2 . : ;.(.I+J+",
"+ | K+d+} . 2 e 2 @ . s 2 * | } b y+L+| }.{ | j M+2 i+} : 4+: N+",
"+ . | @ } q.| (+B n 4 u | D j 7 j y+q+: p j | } O+B ,.j | 2 } X.",
"(+* B B . A } i++ ; u %+2 2 } } 2 j P+{ e j Q+R+  B ' { @ | n d ",
"S+* } : @ 8.| g } } | B @ ( b 5.j } /.y+: Q.; @ T+7 g K } 7 n A ",
"_ b+2.0.c U+^.C.V+0.K 3 z.L ! M W+X+Y+Z+A `+ @d u = &+8.t.B .@6+"};
